<?xml version="1.0" encoding="UTF-8" standalone="no"?>
<!DOCTYPE svg PUBLIC "-//W3C//DTD SVG 1.1//EN" "http://www.w3.org/Graphics/SVG/1.1/DTD/svg11.dtd">
<svg width="100%" height="100%" viewBox="0 0 1024 970" version="1.1" xmlns="http://www.w3.org/2000/svg" xmlns:xlink="http://www.w3.org/1999/xlink" xml:space="preserve" xmlns:serif="http://www.serif.com/" style="fill-rule:evenodd;clip-rule:evenodd;stroke-linejoin:round;stroke-miterlimit:2;">
    <g transform="matrix(1,0,0,1,-0,-27.251613)">
        <g transform="matrix(1.651613,0,0,1.651613,0,27.251613)">
            <path d="M620,0L620,407.639C620,437.91 607.967,466.942 586.549,488.347C565.13,509.752 536.08,521.778 505.789,521.778C475.499,521.778 446.449,509.752 425.03,488.347C403.612,466.942 391.579,437.91 391.579,407.639C391.579,377.367 403.612,348.336 425.03,326.931C446.449,305.525 475.499,293.5 505.789,293.5C523.411,293.5 540.053,297.413 554.737,304.588L554.737,113.161L228.421,182.622L228.421,472.861C228.421,503.133 216.388,532.164 194.97,553.57C173.551,574.975 144.501,587 114.211,587C83.92,587 54.87,574.975 33.452,553.57C12.033,532.164 0,503.133 0,472.861C0,442.59 12.033,413.558 33.452,392.153C54.87,370.748 83.92,358.722 114.211,358.722C131.832,358.722 148.474,362.636 163.158,369.81L163.158,97.833L620,0Z" style="fill-rule:nonzero;"/>
        </g>
    </g>
</svg>
